<svg width="77" height="77" viewBox="0 0 77 77" fill="none" xmlns="http://www.w3.org/2000/svg">
<path d="M38.5 0C30.8854 0 23.4419 2.25799 17.1106 6.48842C10.7793 10.7189 5.84463 16.7317 2.93065 23.7667C0.0166814 30.8016 -0.745747 38.5427 0.739784 46.011C2.22531 53.4792 5.89208 60.3393 11.2764 65.7236C16.6607 71.1079 23.5208 74.7747 30.989 76.2602C38.4573 77.7457 46.1984 76.9833 53.2333 74.0693C60.2683 71.1554 66.2811 66.2207 70.5116 59.8894C74.742 53.5581 77 46.1146 77 38.5C76.9892 28.2925 72.9295 18.5061 65.7117 11.2883C58.4939 4.07048 48.7075 0.0107793 38.5 0ZM38.5 71.0769C32.0569 71.0769 25.7585 69.1663 20.4012 65.5867C15.044 62.0071 10.8685 56.9193 8.40286 50.9666C5.93719 45.014 5.29206 38.4639 6.54905 32.1446C7.80604 25.8252 10.9087 20.0206 15.4647 15.4646C20.0206 10.9087 25.8253 7.80602 32.1446 6.54903C38.4639 5.29204 45.014 5.93718 50.9667 8.40285C56.9193 10.8685 62.0071 15.044 65.5867 20.4012C69.1663 25.7585 71.0769 32.0569 71.0769 38.5C71.0671 47.1369 67.6318 55.4173 61.5245 61.5245C55.4173 67.6318 47.1369 71.0671 38.5 71.0769ZM26.6539 38.5C26.6539 40.9863 27.4361 43.4096 28.8899 45.4266C30.3437 47.4435 32.3952 48.952 34.7539 49.7382C37.1126 50.5245 39.6589 50.5486 42.0321 49.8073C44.4054 49.066 46.4852 47.5967 47.9769 45.6077C48.4487 44.9793 49.1507 44.5641 49.9286 44.4534C50.7065 44.3426 51.4966 44.5455 52.1249 45.0172C52.7533 45.489 53.1685 46.191 53.2792 46.9689C53.39 47.7468 53.1871 48.5369 52.7154 49.1652C50.4772 52.1479 47.3573 54.3508 43.7977 55.462C40.238 56.5732 36.419 56.5363 32.8815 55.3566C29.3439 54.1769 26.2672 51.9142 24.087 48.8889C21.9067 45.8636 20.7336 42.229 20.7336 38.5C20.7336 34.7709 21.9067 31.1364 24.087 28.1111C26.2672 25.0858 29.3439 22.823 32.8815 21.6434C36.419 20.4637 40.238 20.4268 43.7977 21.538C47.3573 22.6492 50.4772 24.8521 52.7154 27.8348C52.949 28.1459 53.119 28.5 53.2157 28.8768C53.3125 29.2537 53.3341 29.6459 53.2792 30.031C53.2244 30.4162 53.0943 30.7868 52.8962 31.1217C52.6981 31.4566 52.4361 31.7492 52.1249 31.9828C51.8138 32.2163 51.4597 32.3864 51.0829 32.4831C50.706 32.5799 50.3138 32.6014 49.9286 32.5466C49.5435 32.4918 49.1729 32.3616 48.838 32.1636C48.5031 31.9655 48.2105 31.7034 47.9769 31.3923C46.4852 29.4033 44.4054 27.934 42.0321 27.1927C39.6589 26.4513 37.1126 26.4755 34.7539 27.2617C32.3952 28.048 30.3437 29.5564 28.8899 31.5734C27.4361 33.5904 26.6539 36.0137 26.6539 38.5Z" fill="#F1F1F1"/>
</svg>
