<svg width="555" height="554" viewBox="0 0 555 554" fill="none" xmlns="http://www.w3.org/2000/svg">
<path d="M1 170.405V2.11205C133.096 -2.3346 171.665 106.278 174.437 161.141V2.11205H304.438C403.017 -3.44624 525.933 7.67033 525.933 133.349C525.933 232.369 443.466 269.63 400.358 276.341C459.286 268.295 550.618 310.247 554.274 417.131C557.231 503.593 473.152 543.736 430.742 553H205.859C204.935 534.884 213.191 484.942 253.608 430.1C294.026 375.258 377.978 370.812 421.501 370.812C439.368 369.268 473.254 357.719 465.861 323.875C458.468 290.031 430.742 285.893 421.501 285.893H190.148V553H1V381.002C42.588 381.002 180.906 393.971 174.437 268.292C169.262 167.749 56.656 161.141 1 170.405Z" fill="white" stroke="white"/>
<path d="M192.182 268.922V182.756H371.196C382.802 184.808 406.321 196.112 407.554 224.916C408.786 253.72 383.829 266.255 371.196 268.922H192.182Z" fill="#0A0A0A" stroke="#0A0A0A"/>
</svg>
