<svg width="87" height="69" viewBox="0 0 87 69" fill="none" xmlns="http://www.w3.org/2000/svg">
<path d="M1.272 11.712V1.08H3.24V11.4C3.24 14.832 4.44 16.56 7.968 16.56C11.496 16.56 12.72 14.832 12.72 11.4V1.08H14.688V11.712C14.688 15.936 12.6 18.24 7.968 18.24C3.36 18.24 1.272 15.936 1.272 11.712ZM17.6661 18V1.08H22.1541C26.2821 1.08 28.6581 1.896 28.6581 5.232C28.6581 7.68 27.0261 8.688 25.2741 8.808V9.384C27.8661 9.432 29.9061 10.488 29.9061 13.512C29.9061 16.92 27.3381 18 23.2341 18H17.6661ZM19.6341 8.352H22.2261C24.9861 8.352 26.6901 7.944 26.6901 5.544C26.6901 2.928 24.9861 2.76 22.2261 2.76H19.6341V8.352ZM19.6341 16.32H23.3061C26.1861 16.32 27.9381 15.84 27.9381 13.176C27.9381 10.704 26.1861 10.032 23.3061 10.032H19.6341V16.32ZM31.6995 9.528C31.6995 4.608 34.6515 0.839999 39.6195 0.839999C43.9395 0.839999 46.7715 3.432 47.2755 7.608H45.3075C44.9235 4.368 42.9315 2.52 39.6195 2.52C35.6835 2.52 33.6675 5.448 33.6675 9.528C33.6675 13.632 35.6835 16.56 39.6195 16.56C42.9315 16.56 44.9235 14.688 45.3075 11.448H47.2755C46.7715 15.648 43.9395 18.24 39.6195 18.24C34.6515 18.24 31.6995 14.472 31.6995 9.528Z" fill="#F5F5F5"/>
<path d="M1.752 41V24.08H6.24C10.368 24.08 12.744 24.896 12.744 28.232C12.744 30.68 11.112 31.688 9.36 31.808V32.384C11.952 32.432 13.992 33.488 13.992 36.512C13.992 39.92 11.424 41 7.32 41H1.752ZM3.72 31.352H6.312C9.072 31.352 10.776 30.944 10.776 28.544C10.776 25.928 9.072 25.76 6.312 25.76H3.72V31.352ZM3.72 39.32H7.392C10.272 39.32 12.024 38.84 12.024 36.176C12.024 33.704 10.272 33.032 7.392 33.032H3.72V39.32ZM28.5422 41L26.4062 34.376H19.6142L17.5022 41H15.5342L21.0062 24.08H25.0382L30.4862 41H28.5422ZM20.1662 32.696H25.8782L23.2862 24.632H22.7342L20.1662 32.696ZM34.2941 41.24C33.3581 41.264 32.8301 40.712 32.8301 39.8V24.08H34.7981V39.56L43.3181 39.32V41L34.2941 41.24ZM47.3254 41.24C46.3894 41.264 45.8614 40.712 45.8614 39.8V24.08H47.8294V39.56L56.3494 39.32V41L47.3254 41.24ZM58.8926 41V24.08H69.3806V25.76H60.8606V31.688H68.1806V33.368H60.8606V39.32H69.3806V41H58.8926ZM85.4001 24.08V25.76H79.5441V41H77.6001V25.76H71.6961V24.08H85.4001Z" fill="#F5F5F5"/>
<path d="M1.512 55.528C1.512 50.608 4.464 46.84 9.432 46.84C13.752 46.84 16.584 49.432 17.088 53.608H15.12C14.736 50.368 12.744 48.52 9.432 48.52C5.496 48.52 3.48 51.448 3.48 55.528C3.48 59.632 5.496 62.56 9.432 62.56C12.744 62.56 14.736 60.688 15.12 57.448H17.088C16.584 61.648 13.752 64.24 9.432 64.24C4.464 64.24 1.512 60.472 1.512 55.528ZM21.3566 64.24C20.4206 64.264 19.8926 63.712 19.8926 62.8V47.08H21.8606V62.56L30.3806 62.32V64L21.3566 64.24ZM31.9751 57.712V47.08H33.9431V57.4C33.9431 60.832 35.1431 62.56 38.6711 62.56C42.1991 62.56 43.4231 60.832 43.4231 57.4V47.08H45.3911V57.712C45.3911 61.936 43.3031 64.24 38.6711 64.24C34.0631 64.24 31.9751 61.936 31.9751 57.712ZM48.3692 64V47.08H52.8572C56.9852 47.08 59.3612 47.896 59.3612 51.232C59.3612 53.68 57.7292 54.688 55.9772 54.808V55.384C58.5692 55.432 60.6092 56.488 60.6092 59.512C60.6092 62.92 58.0412 64 53.9372 64H48.3692ZM50.3372 54.352H52.9292C55.6892 54.352 57.3932 53.944 57.3932 51.544C57.3932 48.928 55.6892 48.76 52.9292 48.76H50.3372V54.352ZM50.3372 62.32H54.0092C56.8892 62.32 58.6412 61.84 58.6412 59.176C58.6412 56.704 56.8892 56.032 54.0092 56.032H50.3372V62.32Z" fill="#F5F5F5"/>
</svg>
