<svg width="500" height="500" viewBox="0 0 500 500" fill="none" xmlns="http://www.w3.org/2000/svg">
<circle cx="250" cy="250" r="250" fill="#C4C4C4"/>
<path d="M155.16 255.76C154.813 257.413 154.107 259 153.04 260.52C152 262.013 150.6 263.24 148.84 264.2C147.107 265.16 145.067 265.64 142.72 265.64C140.08 265.64 137.747 265.04 135.72 263.84C133.693 262.613 132.107 260.88 130.96 258.64C129.84 256.373 129.28 253.72 129.28 250.68C129.28 247.667 129.84 245.04 130.96 242.8C132.107 240.56 133.693 238.84 135.72 237.64C137.747 236.413 140.08 235.8 142.72 235.8C144.827 235.8 146.693 236.2 148.32 237C149.973 237.773 151.32 238.76 152.36 239.96C153.427 241.16 154.187 242.413 154.64 243.72L150.36 244.68C149.773 243.16 148.827 241.92 147.52 240.96C146.213 239.973 144.613 239.48 142.72 239.48C139.973 239.48 137.787 240.48 136.16 242.48C134.56 244.453 133.76 247.187 133.76 250.68C133.76 254.227 134.56 257 136.16 259C137.76 260.973 139.947 261.96 142.72 261.96C144.933 261.96 146.707 261.307 148.04 260C149.373 258.693 150.28 257.053 150.76 255.08L155.16 255.76ZM167.405 243.4C169.458 243.4 171.258 243.867 172.805 244.8C174.352 245.707 175.538 247 176.365 248.68C177.218 250.333 177.645 252.253 177.645 254.44C177.645 256.627 177.218 258.56 176.365 260.24C175.538 261.893 174.352 263.187 172.805 264.12C171.258 265.027 169.458 265.48 167.405 265.48C165.352 265.48 163.552 265.027 162.005 264.12C160.458 263.187 159.258 261.893 158.405 260.24C157.578 258.56 157.165 256.627 157.165 254.44C157.165 252.253 157.578 250.333 158.405 248.68C159.258 247 160.458 245.707 162.005 244.8C163.552 243.867 165.352 243.4 167.405 243.4ZM167.405 262.16C169.272 262.16 170.738 261.48 171.805 260.12C172.898 258.733 173.445 256.84 173.445 254.44C173.445 252.04 172.898 250.16 171.805 248.8C170.738 247.413 169.272 246.72 167.405 246.72C165.538 246.72 164.058 247.413 162.965 248.8C161.872 250.16 161.325 252.04 161.325 254.44C161.325 256.84 161.872 258.733 162.965 260.12C164.058 261.48 165.538 262.16 167.405 262.16ZM203.783 243.4C205.01 243.4 206.156 243.68 207.223 244.24C208.316 244.773 209.196 245.613 209.863 246.76C210.53 247.907 210.863 249.32 210.863 251V265H206.783V252.24C206.783 250.32 206.423 248.947 205.703 248.12C204.983 247.267 203.903 246.84 202.463 246.84C201.61 246.84 200.823 247.093 200.103 247.6C199.383 248.107 198.796 248.853 198.343 249.84C197.89 250.8 197.663 251.973 197.663 253.36V265H193.583V252.24C193.583 250.32 193.223 248.947 192.503 248.12C191.783 247.267 190.703 246.84 189.263 246.84C188.41 246.84 187.623 247.093 186.903 247.6C186.183 248.107 185.596 248.853 185.143 249.84C184.69 250.827 184.463 252.013 184.463 253.4V265H180.383V243.88H184.263V246.72H184.423C185.196 245.573 186.103 244.733 187.143 244.2C188.21 243.667 189.356 243.4 190.583 243.4C191.89 243.4 193.09 243.693 194.183 244.28C195.276 244.84 196.116 245.707 196.703 246.88C197.663 245.707 198.703 244.84 199.823 244.28C200.97 243.693 202.29 243.4 203.783 243.4ZM218.215 243.88V265H214.135V243.88H218.215ZM218.215 236.04V240.48H214.135V236.04H218.215ZM225.712 246.68C226.486 245.56 227.432 244.733 228.552 244.2C229.672 243.667 230.912 243.4 232.272 243.4C233.606 243.4 234.832 243.68 235.952 244.24C237.099 244.773 238.019 245.613 238.712 246.76C239.406 247.88 239.752 249.293 239.752 251V265H235.672V252.24C235.672 250.293 235.286 248.907 234.512 248.08C233.739 247.253 232.566 246.84 230.992 246.84C230.086 246.84 229.232 247.093 228.432 247.6C227.632 248.107 226.979 248.853 226.472 249.84C225.992 250.827 225.752 252.013 225.752 253.4V265H221.672V243.88H225.552V246.68H225.712ZM262.121 263.52C262.121 266.72 261.215 269.067 259.401 270.56C257.588 272.08 255.201 272.84 252.241 272.84C249.868 272.84 247.828 272.293 246.121 271.2C244.441 270.107 243.281 268.427 242.641 266.16L246.561 265.32C246.961 266.813 247.628 267.88 248.561 268.52C249.521 269.16 250.748 269.48 252.241 269.48C256.108 269.48 258.041 267.427 258.041 263.32V261.2H257.881C257.295 262.027 256.468 262.68 255.401 263.16C254.335 263.64 253.108 263.88 251.721 263.88C249.908 263.88 248.281 263.453 246.841 262.6C245.428 261.747 244.321 260.547 243.521 259C242.721 257.453 242.321 255.667 242.321 253.64C242.321 251.64 242.721 249.867 243.521 248.32C244.321 246.747 245.428 245.533 246.841 244.68C248.281 243.827 249.908 243.4 251.721 243.4C253.161 243.4 254.441 243.667 255.561 244.2C256.681 244.707 257.521 245.413 258.081 246.32H258.241V243.88H262.121V263.52ZM252.401 260.64C254.188 260.64 255.615 260 256.681 258.72C257.748 257.44 258.281 255.747 258.281 253.64C258.281 251.56 257.748 249.893 256.681 248.64C255.615 247.36 254.188 246.72 252.401 246.72C250.615 246.72 249.175 247.36 248.081 248.64C247.015 249.893 246.481 251.56 246.481 253.64C246.481 255.72 247.015 257.413 248.081 258.72C249.175 260 250.615 260.64 252.401 260.64ZM290.002 244.68C289.629 242.92 288.829 241.6 287.602 240.72C286.402 239.813 284.869 239.36 283.002 239.36C281.216 239.36 279.789 239.773 278.722 240.6C277.656 241.427 277.122 242.493 277.122 243.8C277.122 244.92 277.496 245.76 278.242 246.32C279.016 246.853 280.162 247.307 281.682 247.68L286.602 248.8C288.469 249.28 289.962 249.773 291.082 250.28C292.229 250.76 293.176 251.56 293.922 252.68C294.696 253.773 295.082 255.293 295.082 257.24C295.082 259.053 294.589 260.587 293.602 261.84C292.642 263.093 291.322 264.04 289.642 264.68C287.962 265.32 286.082 265.64 284.002 265.64C280.536 265.64 277.736 264.827 275.602 263.2C273.469 261.573 272.149 259.24 271.642 256.2L276.002 255.76C276.296 258 277.176 259.613 278.642 260.6C280.109 261.587 281.922 262.08 284.082 262.08C286.056 262.08 287.629 261.667 288.802 260.84C290.002 259.987 290.602 258.827 290.602 257.36C290.602 256.4 290.389 255.64 289.962 255.08C289.536 254.52 288.962 254.093 288.242 253.8C287.522 253.48 286.562 253.173 285.362 252.88L280.162 251.6C278.669 251.227 277.389 250.787 276.322 250.28C275.256 249.747 274.376 248.973 273.682 247.96C272.989 246.92 272.642 245.573 272.642 243.92C272.642 242.293 273.096 240.867 274.002 239.64C274.909 238.413 276.149 237.467 277.722 236.8C279.296 236.133 281.069 235.8 283.042 235.8C286.136 235.8 288.629 236.533 290.522 238C292.416 239.467 293.709 241.573 294.402 244.32L290.002 244.68ZM307.561 243.4C309.615 243.4 311.415 243.867 312.961 244.8C314.508 245.707 315.695 247 316.521 248.68C317.375 250.333 317.801 252.253 317.801 254.44C317.801 256.627 317.375 258.56 316.521 260.24C315.695 261.893 314.508 263.187 312.961 264.12C311.415 265.027 309.615 265.48 307.561 265.48C305.508 265.48 303.708 265.027 302.161 264.12C300.615 263.187 299.415 261.893 298.561 260.24C297.735 258.56 297.321 256.627 297.321 254.44C297.321 252.253 297.735 250.333 298.561 248.68C299.415 247 300.615 245.707 302.161 244.8C303.708 243.867 305.508 243.4 307.561 243.4ZM307.561 262.16C309.428 262.16 310.895 261.48 311.961 260.12C313.055 258.733 313.601 256.84 313.601 254.44C313.601 252.04 313.055 250.16 311.961 248.8C310.895 247.413 309.428 246.72 307.561 246.72C305.695 246.72 304.215 247.413 303.121 248.8C302.028 250.16 301.481 252.04 301.481 254.44C301.481 256.84 302.028 258.733 303.121 260.12C304.215 261.48 305.695 262.16 307.561 262.16ZM330.139 243.4C332.193 243.4 333.993 243.867 335.539 244.8C337.086 245.707 338.273 247 339.099 248.68C339.953 250.333 340.379 252.253 340.379 254.44C340.379 256.627 339.953 258.56 339.099 260.24C338.273 261.893 337.086 263.187 335.539 264.12C333.993 265.027 332.193 265.48 330.139 265.48C328.086 265.48 326.286 265.027 324.739 264.12C323.193 263.187 321.993 261.893 321.139 260.24C320.313 258.56 319.899 256.627 319.899 254.44C319.899 252.253 320.313 250.333 321.139 248.68C321.993 247 323.193 245.707 324.739 244.8C326.286 243.867 328.086 243.4 330.139 243.4ZM330.139 262.16C332.006 262.16 333.473 261.48 334.539 260.12C335.633 258.733 336.179 256.84 336.179 254.44C336.179 252.04 335.633 250.16 334.539 248.8C333.473 247.413 332.006 246.72 330.139 246.72C328.273 246.72 326.793 247.413 325.699 248.8C324.606 250.16 324.059 252.04 324.059 254.44C324.059 256.84 324.606 258.733 325.699 260.12C326.793 261.48 328.273 262.16 330.139 262.16ZM347.158 246.68C347.931 245.56 348.878 244.733 349.998 244.2C351.118 243.667 352.358 243.4 353.718 243.4C355.051 243.4 356.278 243.68 357.398 244.24C358.544 244.773 359.464 245.613 360.158 246.76C360.851 247.88 361.198 249.293 361.198 251V265H357.118V252.24C357.118 250.293 356.731 248.907 355.958 248.08C355.184 247.253 354.011 246.84 352.438 246.84C351.531 246.84 350.678 247.093 349.878 247.6C349.078 248.107 348.424 248.853 347.918 249.84C347.438 250.827 347.198 252.013 347.198 253.4V265H343.118V243.88H346.998V246.68H347.158ZM365.127 244.12V236.44H369.527V244.12L368.887 256.8H365.807L365.127 244.12ZM369.807 260.04V265H364.847V260.04H369.807Z" fill="#0B0B0B"/>
</svg>
